<svg width="50" height="50" viewBox="0 0 150 150" fill="none" xmlns="http://www.w3.org/2000/svg">
<path d="M134.362 74.9766L147.834 61.7916C151.85 57.9897 149.978 51.2333 144.71 49.9735L126.356 45.2889L131.53 27.1205C132.992 21.8945 128.064 16.9653 122.84 18.4278L104.678 23.6037L99.9948 5.24309C98.7556 0.0578451 91.9235 -1.83854 88.1808 2.11771L75.0002 15.6944L61.8198 2.118C58.1195 -1.79342 51.2591 -0.00133496 50.0058 5.24339L45.3229 23.604L27.1603 18.4281C21.9346 16.9651 17.0086 21.896 18.4705 27.1208L23.6447 45.2892L5.29014 49.9738C0.0202049 51.2339 -1.84865 57.9915 2.16562 61.7916L15.6378 74.9766L2.16562 88.1614C-1.8504 91.9632 0.0222562 98.7197 5.28985 99.9794L23.6444 104.664L18.4702 122.832C17.008 128.058 21.9358 132.988 27.16 131.525L45.3224 126.349L50.0052 144.71C51.3057 150.152 58.1193 151.746 61.8192 147.835L75.0002 134.358L88.1806 147.835C91.8427 151.787 98.7236 150.028 99.9945 144.71L104.677 126.349L122.84 131.525C128.065 132.988 132.991 128.057 131.529 122.832L126.355 104.664L144.71 99.9794C149.98 98.7191 151.848 91.9618 147.834 88.1614L134.362 74.9766Z" fill="#3A3A3A"/>
</svg>
