<svg fill="#81CCB7" xmlns="http://www.w3.org/2000/svg"  viewBox="0 0 128 128" width="50px" height="50px"><path d="M 66 16 A 2 2 0 0 0 66 20 A 44 44 0 1 1 22 65.480469 L 30.720703 71.820312 A 2.0012559 2.0012559 0 0 0 33.070312 68.580078 L 20.410156 59.380859 A 2 2 0 0 0 17.609375 59.820312 L 8.4492188 72.480469 A 2 2 0 0 0 8.890625 75.279297 A 2 2 0 0 0 10.060547 75.660156 A 2 2 0 0 0 11.679688 74.830078 L 18.050781 66.070312 A 48 48 0 1 0 66 16 z M 54.083984 17.560547 A 2 2 0 0 0 54.060547 21.560547 A 1.85 1.85 0 0 0 54.580078 21.5 A 2 2 0 0 0 54.083984 17.560547 z M 42.992188 22.128906 A 2 2 0 0 0 42 22.439453 A 2 2 0 0 0 43 26.169922 A 2 2 0 0 0 44 25.900391 A 2 2 0 0 0 42.992188 22.128906 z M 65.941406 28 A 2 2 0 0 0 64 30 L 64 64 A 2 2 0 0 0 65 65.759766 L 87 77.759766 A 2.07 2.07 0 0 0 88 78 A 2 2 0 0 0 89 74.240234 L 68 62.810547 L 68 30 A 2 2 0 0 0 65.941406 28 z M 33.539062 29.482422 A 2 2 0 0 0 32.050781 32.900391 A 2 2 0 0 0 33.460938 33.480469 A 2 2 0 0 0 33.539062 29.482422 z M 26.009766 38.958984 A 2 2 0 0 0 25.150391 42.730469 A 1.93 1.93 0 0 0 26.150391 43 A 2 2 0 0 0 27.150391 39.269531 A 2 2 0 0 0 26.009766 38.958984 z M 21.537109 50.060547 A 2 2 0 0 0 21 54 A 2.31 2.31 0 0 0 21.519531 54.060547 A 2 2 0 0 0 21.537109 50.060547 z"/></svg>