<svg width="204" height="204" viewBox="0 0 204 204" fill="none" xmlns="http://www.w3.org/2000/svg">
<path d="M101.515 0C45.5804 0 0 45.5804 0 101.515C0 157.451 45.5804 203.031 101.515 203.031C157.451 203.031 203.031 157.451 203.031 101.515C203.031 45.5804 157.451 0 101.515 0ZM135.625 124.864C138.569 127.808 138.569 132.681 135.625 135.625C134.102 137.147 132.173 137.858 130.244 137.858C128.316 137.858 126.387 137.147 124.864 135.625L101.515 112.276L78.1669 135.625C76.6442 137.147 74.7154 137.858 72.7866 137.858C70.8578 137.858 68.929 137.147 67.4063 135.625C64.4623 132.681 64.4623 127.808 67.4063 124.864L90.7548 101.515L67.4063 78.1669C64.4623 75.223 64.4623 70.3502 67.4063 67.4063C70.3502 64.4623 75.223 64.4623 78.1669 67.4063L101.515 90.7548L124.864 67.4063C127.808 64.4623 132.681 64.4623 135.625 67.4063C138.569 70.3502 138.569 75.223 135.625 78.1669L112.276 101.515L135.625 124.864Z" fill="#CB2323"/>
</svg>
