<svg width="204" height="204" viewBox="0 0 204 204" fill="none" xmlns="http://www.w3.org/2000/svg">
<path d="M198.526 88.7553L184.719 72.7148C182.079 69.6692 179.947 63.984 179.947 59.9231V42.6644C179.947 31.9032 171.115 23.0708 160.354 23.0708H143.095C139.136 23.0708 133.349 20.9388 130.303 18.2993L114.263 4.49233C107.258 -1.49744 95.786 -1.49744 88.6795 4.49233L72.7402 18.4008C69.6946 20.9388 63.9078 23.0708 59.9485 23.0708H42.3853C31.624 23.0708 22.7916 31.9032 22.7916 42.6644V60.0246C22.7916 63.984 20.6596 69.6692 18.1216 72.7148L4.41619 88.8569C-1.47206 95.8619 -1.47206 107.232 4.41619 114.237L18.1216 130.379C20.6596 133.425 22.7916 139.11 22.7916 143.069V160.43C22.7916 171.191 31.624 180.023 42.3853 180.023H59.9485C63.9078 180.023 69.6946 182.155 72.7402 184.795L88.781 198.602C95.786 204.591 107.258 204.591 114.364 198.602L130.405 184.795C133.451 182.155 139.136 180.023 143.197 180.023H160.455C171.217 180.023 180.049 171.191 180.049 160.43V143.171C180.049 139.212 182.181 133.425 184.82 130.379L198.627 114.339C204.516 107.334 204.516 95.7603 198.526 88.7553ZM143.704 82.3595L94.6693 131.394C93.248 132.816 91.3191 133.628 89.2886 133.628C87.2582 133.628 85.3293 132.816 83.908 131.394L59.3394 106.826C56.3952 103.882 56.3952 99.009 59.3394 96.0649C62.2835 93.1208 67.1565 93.1208 70.1007 96.0649L89.2886 115.252L132.943 71.5981C135.887 68.654 140.76 68.654 143.704 71.5981C146.648 74.5422 146.648 79.4153 143.704 82.3595Z" fill="#22772A"/>
</svg>
